<svg xmlns="http://www.w3.org/2000/svg" viewBox="0 0 100 100" width="300" height="300">
    <g stroke="#FFFFFF" stroke-width="2.5" fill="none" stroke-linecap="round" stroke-linejoin="round">

        <path d="M 30,30 C 30,15 45,8 60,15 C 70,20 75,30 75,45 C 75,70 60,88 50,92 C 40,88 30,70 30,45 Z" />

        <line x1="42" y1="50" x2="48" y2="50" /> <line x1="58" y1="50" x2="52" y2="50" /> <path d="M 50,45 L 50,65 L 46,67" /> <line x1="45" y1="78" x2="55" y2="78" /> <path d="M 30,30 C 35,25 48,22 65,30" />
    </g>

    <g transform="translate(80, 50) rotate(-30)">
        <rect x="-3" y="10" width="6" height="30" rx="3" stroke="#FFFFFF" stroke-width="2" fill="none"/>
        <rect x="-3" y="5" width="6" height="5" stroke="#FFFFFF" stroke-width="2" fill="#94A3B8"/>
        <path d="M -3,5 L -5,-5 C -2,-8 2,-8 5,-5 L 3,5 Z" stroke="#FFFFFF" stroke-width="2" fill="#CBD5E1"/>
    </g>
</svg>
